<svg xmlns="http://www.w3.org/2000/svg" xmlns:xlink="http://www.w3.org/1999/xlink" id="Layer_1" x="0px" y="0px" viewBox="0 0 92.5 40" style="enable-background:new 0 0 92.5 40;" xml:space="preserve"><style type="text/css">	.st0{fill:#5059BC;}	.st1{fill:#C8D29C;}	.st2{fill:#8A9A46;}	.st3{fill:#F26DF9;}	.st4{fill:#FFFFFF;}</style><g>	<g>		<g>			<g>				<g>					<path class="st0" d="M2.5,21.8v-2.9c2.1,0,5.1,0.7,6.8,1.2c0.4-0.4,0.8-0.8,1.2-1.2c-1.7-0.7-5.4-1.4-7.9-1.5v-0.6v-2.3      c2.4,0,4.4,0.6,6.4,1.1c1.4,0.4,2.9,0.8,4.3,0.9c1.2-0.8,2.4-1.5,3.7-2c-2.7,1-4.9,0.4-7.6-0.4c-2.1-0.6-4.6-1.3-7.6-1.2      l-0.7,0v3.8V19v3.1L1.6,22C1.9,21.9,2.2,21.9,2.5,21.8z"></path>				</g>				<g>					<polygon class="st1" points="27.7,22.1 27.7,22.1 27.7,22.1      "></polygon>					<path class="st1" d="M27,13.1c-7.7-0.9-15.4,2.9-19.4,9.4c0.5,0.2,1,0.4,1.4,0.6l0,0c3.6-5.7,10.3-9,17.1-8.5v2.2v0.6      c-5.8-0.5-11.7,2.4-14.7,7.3l0,0c0.4,0.4,0.8,0.7,1.1,1.2c2.7-4.6,8.2-7.4,13.6-6.9v2.8c0.3,0,0.6,0.1,0.9,0.1l0.7,0.1v-2.9      v-2.4v-3.6L27,13.1z"></path>				</g>				<path class="st2" d="M27,22c-3.3-0.6-6.8,0.3-9.5,2.5c-1.4,1.2-2.5,2.7-3.2,4.4c-0.7-1.7-1.8-3.2-3.2-4.4     c-2.7-2.2-6.2-3.2-9.5-2.5l-0.7,0.1l0,0.7c0.2,3.3,1.8,6.3,4.3,8.6c2.3,2.1,5.3,3.3,8.4,3.5c0,0,0.3,0,0.6,0s0.6,0,0.6,0     c3.1-0.1,6-1.4,8.4-3.5c2.5-2.3,4.1-5.3,4.3-8.6l0-0.7L27,22z M13.5,32.9c0,0.1,0,0.2,0,0.4C8,33,3.4,28.7,2.6,23.4     c2.6-0.3,5.4,0.6,7.5,2.3C12.3,27.6,13.6,30.2,13.5,32.9L13.5,32.9z M15.1,33.3c0-0.1,0-0.2,0-0.4v0c0-2.7,1.2-5.4,3.4-7.2     c1.8-1.5,4.2-2.4,6.5-2.4c0.3,0,0.7,0,1,0.1C25.2,28.7,20.6,33,15.1,33.3z"></path>			</g>		</g>	</g></g><g>	<g>		<circle class="st3" cx="11.6" cy="7.1" r="1.6"></circle>		<circle class="st3" cx="17" cy="7.1" r="1.6"></circle>	</g>	<g>		<circle class="st3" cx="6.3" cy="9.2" r="1.6"></circle>		<circle class="st3" cx="22.3" cy="9.2" r="1.6"></circle>	</g></g><g>	<g>		<path class="st4" d="M37.8,15.1l-0.1-0.5c-0.2,0.3-0.6,0.6-1.3,0.6c-1.1,0-2.1-0.8-2.1-2.2c0-1.4,1-2.2,2.1-2.2   c1,0,1.7,0.6,1.9,1.3l-0.7,0.3c-0.1-0.5-0.6-0.9-1.2-0.9c-0.7,0-1.4,0.5-1.4,1.5c0,1,0.7,1.5,1.4,1.5c0.8,0,1.2-0.6,1.2-0.9h-1.4   V13h2.1v2.1H37.8z"></path>		<path class="st4" d="M41.8,13.7c0,0.9-0.6,1.5-1.5,1.5c-0.9,0-1.5-0.6-1.5-1.5c0-0.9,0.6-1.5,1.5-1.5   C41.2,12.1,41.8,12.8,41.8,13.7z M41.1,13.7c0-0.6-0.4-0.9-0.8-0.9c-0.4,0-0.8,0.3-0.8,0.9c0,0.6,0.4,0.9,0.8,0.9   C40.8,14.6,41.1,14.3,41.1,13.7z"></path>		<path class="st4" d="M42.4,15.1v-4.3h0.7v1.8c0.1-0.2,0.5-0.4,0.9-0.4c0.9,0,1.3,0.7,1.3,1.5c0,0.9-0.5,1.5-1.4,1.5   c-0.4,0-0.7-0.2-0.9-0.5v0.4H42.4z M43.8,12.8c-0.4,0-0.8,0.3-0.8,0.9c0,0.6,0.3,0.9,0.8,0.9c0.5,0,0.8-0.3,0.8-0.9   C44.6,13.1,44.3,12.8,43.8,12.8z"></path>		<path class="st4" d="M46.2,10.7c0.2,0,0.5,0.2,0.5,0.5c0,0.2-0.2,0.4-0.5,0.4c-0.2,0-0.4-0.2-0.4-0.4C45.7,11,45.9,10.7,46.2,10.7   z M45.8,15.1v-2.9h0.7v2.9H45.8z"></path>		<path class="st4" d="M49.9,14.3c-0.2,0.5-0.6,0.9-1.3,0.9c-0.8,0-1.5-0.6-1.5-1.6c0-0.9,0.7-1.5,1.4-1.5c0.9,0,1.4,0.6,1.4,1.5   c0,0.1,0,0.2,0,0.2h-2.1c0,0.4,0.4,0.8,0.8,0.8c0.4,0,0.6-0.2,0.7-0.5L49.9,14.3z M49.2,13.3c0-0.3-0.2-0.6-0.7-0.6   c-0.4,0-0.7,0.3-0.7,0.6H49.2z"></path>		<path class="st4" d="M52.1,12.9c-0.1,0-0.2,0-0.2,0c-0.5,0-0.8,0.3-0.8,0.8v1.4h-0.7v-2.9h0.7v0.5c0.1-0.3,0.5-0.5,0.8-0.5   c0.1,0,0.2,0,0.2,0V12.9z"></path>		<path class="st4" d="M53.3,15.1h-0.7v-2.9h0.7v0.4c0.2-0.3,0.5-0.5,0.9-0.5c0.7,0,1,0.5,1,1.1v1.8h-0.7v-1.7   c0-0.4-0.2-0.6-0.6-0.6c-0.4,0-0.6,0.3-0.6,0.7V15.1z"></path>		<path class="st4" d="M58.6,13.7c0,0.9-0.6,1.5-1.5,1.5c-0.9,0-1.5-0.6-1.5-1.5c0-0.9,0.6-1.5,1.5-1.5C58,12.1,58.6,12.8,58.6,13.7   z M58,13.7c0-0.6-0.4-0.9-0.8-0.9c-0.4,0-0.8,0.3-0.8,0.9c0,0.6,0.4,0.9,0.8,0.9C57.6,14.6,58,14.3,58,13.7z"></path>		<path class="st4" d="M63.2,14.6c0,0.3,0,0.5,0,0.5h-0.7c0-0.1,0-0.3,0-0.4c-0.1,0.2-0.4,0.4-0.8,0.4c-0.8,0-1.4-0.7-1.4-1.5   c0-0.8,0.6-1.5,1.4-1.5c0.5,0,0.8,0.2,0.8,0.4v-1.7h0.7V14.6z M61.8,14.6c0.5,0,0.8-0.4,0.8-0.9c0-0.6-0.3-0.9-0.8-0.9   c-0.5,0-0.8,0.4-0.8,0.9C61,14.2,61.3,14.6,61.8,14.6z"></path>		<path class="st4" d="M66.6,14.3c-0.2,0.5-0.6,0.9-1.3,0.9c-0.8,0-1.5-0.6-1.5-1.6c0-0.9,0.7-1.5,1.4-1.5c0.9,0,1.4,0.6,1.4,1.5   c0,0.1,0,0.2,0,0.2h-2.1c0,0.4,0.4,0.8,0.8,0.8c0.4,0,0.6-0.2,0.7-0.5L66.6,14.3z M65.9,13.3c0-0.3-0.2-0.6-0.7-0.6   c-0.4,0-0.7,0.3-0.7,0.6H65.9z"></path>		<path class="st4" d="M67.1,15.1v-4.3h0.7v4.3H67.1z"></path>	</g>	<path class="st4" d="M34.4,24c0-3.5,2.6-5.8,5.7-5.8c3.3,0,4.8,2.1,5.2,3.7l-2.3,0.7c-0.2-0.8-0.9-2.1-2.8-2.1  c-1.5,0-3.2,1.1-3.2,3.4c0,2.1,1.5,3.3,3.2,3.3c1.9,0,2.7-1.3,2.9-2.1l2.4,0.7c-0.4,1.5-1.8,3.9-5.3,3.9  C36.9,29.7,34.4,27.4,34.4,24z"></path>	<path class="st4" d="M53.6,29.5v-4.4h-4.4v4.4h-2.5V18.4h2.5v4.3h4.4v-4.3h2.5v11.1H53.6z"></path>	<path class="st4" d="M64.8,27.2h-4.3l-0.8,2.2h-2.6l4.2-11.1h2.9l4.1,11.1h-2.7L64.8,27.2z M61.3,25H64l-1.3-3.8L61.3,25z"></path>	<path class="st4" d="M68.1,24c0-3.5,2.6-5.8,5.7-5.8c3.3,0,4.8,2.1,5.2,3.7l-2.3,0.7c-0.2-0.8-0.9-2.1-2.8-2.1  c-1.5,0-3.2,1.1-3.2,3.4c0,2.1,1.5,3.3,3.2,3.3c1.9,0,2.7-1.3,2.9-2.1l2.4,0.7c-0.4,1.5-1.8,3.9-5.3,3.9  C70.6,29.7,68.1,27.4,68.1,24z"></path>	<path class="st4" d="M85.5,18.2c3.1,0,5.7,2.3,5.7,5.8c0,3.5-2.6,5.8-5.7,5.8c-3.1,0-5.8-2.3-5.8-5.8  C79.7,20.4,82.4,18.2,85.5,18.2z M85.5,27.3c1.5,0,3.2-1,3.2-3.3c0-2.3-1.7-3.4-3.2-3.4c-1.5,0-3.2,1-3.2,3.4  C82.3,26.2,84,27.3,85.5,27.3z"></path></g></svg>